<svg xmlns="http://www.w3.org/2000/svg" version="1.1" width="600px" height="600px" viewBox="0 0 200 200" style="overflow:hidden!important;"><defs id="SvgjsDefs3072"></defs><g id="svga-group-wrapper"><g id="svga-group-backs-single"><path id="SvgjsPath3520" d="M0 0h200v200H0V0z" fill="#ecf0f1" stroke-width="none" opacity="1"></path></g><g id="svga-group-humanwrap-move" transform="matrix(1,0,0,1,0,0)"><g id="svga-group-humanwrap" transform="matrix(0.9499999,0,0,0.9499999,4.975010808308596,6.425012087059017)"><g id="svga-group-hair-back-move" transform="matrix(1,0,0,1,0,0)"><g id="svga-group-hair-back" transform="matrix(1,0,0,1,0,0)"></g></g><g id="svga-group-humanbody-back"><path id="SvgjsPath3473" d="M166.5 181.1c-10.9-6.6-27.6-8.4-35-12.1-4.9-2.5-9.1-4.7-8.9-17.8s1.9-42.4 1.9-42.4H75.4s1.6 29.4 1.9 42.4-4.2 15.6-8.9 17.8c-7.4 3.5-24.1 5.4-35 12.1-10.8 6.6-10 18.9-10 18.9v19.7h153.3V200c-.1 0 .7-12.3-10.2-18.9z" fill="#f0c7b1" stroke-width="none" opacity="1" stroke="none"></path></g><g id="svga-group-chinshadow-single"><path id="SvgjsPath8627" d="M77.2 155.9c6.9 8.3 13.3 15.4 17.2 14.8 0 0 4.4-.9 5.6-.9s5.6 1 5.6 1c3.9.6 10.2-6.5 17.2-14.8-.1-1.4-.2-3-.2-4.8.2-13.1 1.9-42.4 1.9-42.4H75.4s1.6 29.4 1.9 42.4c0 1.7 0 3.3-.1 4.7z" fill="#d19271" stroke-width="none" opacity="0.65"></path></g><g id="svga-group-humanbody-front"><path id="SvgjsPath3474" d="M78.7 156.8c.5 4.8 1.7 9.4 3.1 13.9.8 2.3 1.6 4.6 2.6 6.9.8 2 1.7 4.2 3.1 5.9.3.4 1 0 .9-.5-.5-2.2-1.6-4.3-2.4-6.4-.9-2.2-1.7-4.4-2.5-6.6-1.5-4.4-2.8-8.9-4.1-13.3-.2-.4-.8-.3-.7.1zm41.3-1c-1.3 8.2-3.9 16.1-5.4 24.2-.1.4.4.5.6.2 3.1-7.7 4.1-16.1 5.1-24.3-.1-.2-.3-.2-.3-.1zm-25.8 11.9c-.9 3.6 1.9 8.6 6.2 7.6.5-.1.4-.8 0-1-1.4-.5-2.9-.9-3.9-2.1-1.1-1.2-1.5-2.9-1.4-4.5 0-.4-.8-.5-.9 0z" fill="#d19271" stroke-width="none" opacity="1" stroke="none"></path><path id="SvgjsPath3475" d="M177.3 219.7c-.1-6.6-.3-13.1-.3-19.7l-.3-.3c.1 0 .1 0 .2.1s.1.2.1.1v-1.4c0-.5-.1-.9-.1-1.4-.1-.9-.3-1.9-.5-2.8-.5-1.8-1.1-3.6-2-5.3-1.7-3.4-4.4-6.2-7.7-8.1-3.6-2.2-7.6-3.8-11.6-5.1-4-1.3-8.1-2.4-12.1-3.5-4-1.2-8.1-2.2-11.8-4.2-1.9-1-3.6-2.1-4.8-3.6-1.2-1.6-1.9-3.5-2.3-5.5-.8-4-.4-8.2-.3-12.4l.7-12.6 1.5-25.2.1-1.4h-1.4c-8.2 0-16.4 0-24.6.1l-24.6.3h-.9l.1.9c.8 11.9 1.6 23.8 2.1 35.7.1 3 .3 6 .2 8.9-.1 2.9-.4 5.9-1.6 8.6-.6 1.3-1.4 2.5-2.4 3.5s-2.3 1.8-3.6 2.4c-2.6 1.3-5.4 2.2-8.3 3-5.8 1.5-11.6 2.8-17.3 4.7-2.8.9-5.7 2-8.4 3.4-1.3.7-2.7 1.4-4 2.4-1.3.9-2.4 1.9-3.5 3.1-2.1 2.3-3.6 5.2-4.5 8.1-.5 1.5-.8 3-1 4.6-.1.8-.1 1.6-.1 2.4v2.3l-.2 17.9v1.3h1.4l38.3.2c12.8.1 25.5.1 38.3 0 12.8-.1 25.6-.1 38.3-.3 12.8-.2 25.6-.5 38.3-.7h.6v-.5zm-77.2-1.6H61.8l-37 .2-.1-16.6v-2.2c0-.7 0-1.4.1-2.1.1-1.4.4-2.8.8-4.2.8-2.7 2.1-5.3 3.9-7.5.9-1.1 2-2.1 3.1-2.9 1.1-.9 2.4-1.6 3.7-2.3 2.6-1.4 5.3-2.5 8.1-3.5 5.6-2 11.4-3.4 17.1-5.1 2.9-.8 5.8-1.7 8.5-3.1 1.3-.7 2.7-1.5 3.8-2.6 1.1-1.1 2-2.4 2.6-3.9 1.2-2.9 1.5-5.9 1.6-8.9 0-3-.1-6-.2-9l-1.3-34.8 23.5.4c7.7.1 15.4.1 23.1.1-.4 7.9-.8 15.9-1.1 23.8-.2 4.2-.2 8.4-.3 12.6 0 4.2-.2 8.5.8 12.8.5 2.1 1.3 4.2 2.8 6 1.4 1.7 3.4 2.9 5.3 3.8 3.9 1.9 8 2.8 12.1 3.8s8.2 2 12.2 3.3c4 1.3 7.9 2.8 11.5 5 3.2 1.9 5.8 4.7 7.5 8 .9 1.6 1.5 3.4 1.9 5.2.2.9.4 1.8.4 2.7.1.5.1.9.1 1.4V200l-.3 19c-12.6-.2-25.1-.5-37.7-.7-12.7-.1-25.5-.1-38.2-.2z" fill="#c27b55" stroke-width="none" opacity="1" stroke="none"></path></g><g id="svga-group-clothes-single"><path id="SvgjsPath7405" d="M100.8 184.4c-1.1-3-8.2-7.8-13.2-10.6s-7-4.9-10-8.8c-1.8-3.6-1-8.9-1-8.9-.1-4.7-.6-9.5-.9-14.7-8.2-1.1-13.1 3.7-14 4.6-6.5 6.3-3.1 8.5-5.7 11.5-9.2 2.1-7.1 14.2-10.7 15-8.7 1.9-21.2 7-24.2 21 0 0-1.6 9.2-1.6 26.7h160.7c0-17.5-1.6-26.7-1.6-26.7-3.2-15.2-17.6-19-26.1-21.4-1.4-.6.2-5.2-2.5-10.5-1.4-2.7-3.9-6.5-9.3-7.8 0 0-1.2-6.6-5.4-9.9-4.2-3.3-11.2-2.5-11.2-2.5s-.3 14.1-.3 16.1c0 3.2-.2 4.9-1.6 6.6s-4.4 3.9-6.9 7.5-10.1 7.5-11.7 9c-1.4 1.4-2.8 3.8-2.8 3.8z" fill="#39557e" stroke-width="none" opacity="1" stroke="none"></path><path id="SvgjsPath7406" d="M105.6 187.4c-.6.6-1.7 3.4-1.8 5.7s1.8 11.5 2.1 13.4-1 7.4-1 8.5 2.8 2.8 3.1 1.7c.3-1.1 1.2-8.4.2-10.9s-2.2-10.1-2.2-11.6 1.1-5.6 1.6-6.5c0 0 .2-.8-.6-.9-.8-.1-1.4.6-1.4.6z" fill="#d6d6d6" stroke-width="none" opacity="1"></path><path id="SvgjsPath7407" d="m95.6 186.8.1-.2s1.8-1.3 1.9.9c0 0-1.2 2.8-1.2 4.8s2.2 11.9 2.5 14.1-2.7 10.4-3.1 10.5-2.1-.9-2.6-1.3c-.4-.4 2.5-6.9 2.8-9.9.3-2.9-.4-8.7-1.2-12.2-.8-3.5.4-5.9.8-6.6v-.1z" fill="#d6d6d6" stroke-width="none" opacity="1"></path><path id="SvgjsPath7408" d="M181.4 204.3c-.2-2.6-.4-5.2-.7-7.9l-.2-2-.1-1v-.3c0-.1 0-.2-.1-.3l-.1-.5c-.3-1.4-.7-2.7-1.2-4-1.1-2.6-2.6-5-4.4-7.1-1.9-2.1-4.1-3.8-6.5-5.2-4.6-2.7-9.6-4.2-14.5-5.5v-.1c-.1-.4-.1-.9-.1-1.4-.1-1-.1-2-.3-3.1-.3-2.1-1.1-4.2-2.1-6-1-1.8-2.4-3.6-4.1-4.9-1.5-1.2-3.2-2-5-2.6-.4-1.4-.8-2.8-1.4-4.1-.7-1.6-1.6-3.1-2.9-4.4-1.3-1.4-3.4-2.5-5-3-5.1-1.2-8.6-.4-8.6-.4s-1.2 9.6-2.9 22.5c0 0-3.9 4.9-5.3 6.8-.4.4-.7 1-1.1 1.4-.2.2-.3.4-.5.6l-.6.6c-.8.8-1.7 1.5-2.6 2.2-1.8 1.4-3.8 2.7-5.7 4-.5.3-1 .7-1.4 1.1-.5.4-.8.9-1.2 1.3-.4.5-.7.9-1 1.4l-.5.8-.2.4-.1.1-.2-.3-.3-.6c-.2-.4-.5-.7-.8-1l-1.8-1.8c-1.3-1.1-2.6-2.2-4-3.2s-2.8-1.9-4.2-2.8c-1.4-.9-2.9-1.7-4.2-2.7-2.7-2-4.5-4.6-6.6-7.1-1.1-1.3-1.7-3.5-1.9-4.9-.1-1 .6-10.8-.2-17.9 0-.4-.7-.9-5.6-1.1-5 .1-8.8 3.3-10.4 4.9-1.5 1.6-3.1 3.3-3.9 5.6-.4 1.1-.5 2.4-.7 3.4-.1.9-.3 1.4-.7 1.9-1.7.4-3.3 1.3-4.5 2.5-1.4 1.4-2.3 3-2.9 4.7-.7 1.7-1.1 3.4-1.5 4.9-.2.8-.5 1.5-.8 2.1-.1.3-.3.4-.4.5 0 0-.1 0-.1.1l-.6.1c-3.3.8-6.6 1.9-9.8 3.4-3.1 1.6-6 3.6-8.4 6.2-2.4 2.6-4.2 5.7-5.3 9-.3.8-.5 1.7-.7 2.5l-.1.7c0 .1 0 .2-.1.4v.3l-.2 1.3c-.2 1.7-.3 3.4-.5 5-.5 6.7-.6 13.4-.5 20.1 0 .4.1 1.3.5 1.3 13.4-.2 160.9.2 160.9.2.8 0 1.5-.7 1.5-1.5-.1-5-.2-10.3-.6-15.6zm-27.8-33.4zm-28.8-26.1c1 .6 4.7 2.5 6 5.1.1.8.2 1.8 0 2.6s-.6 1.5-1.1 2.3c-2.1 2.6-6.1 6.3-6.5 6.8 5.1-8.8 1.6-16.8 1.6-16.8zm-50.4 17.7c.9 1.4 4 4.3 5 5.5-.4-.3-3.9-3-4.3-3.2-1.2-.8-1.8-1.7-2.7-2.9-1.8-2.2-2.7-5.1-3.4-8-.3-1.4-.6-2.9.3-3.8 2.2-1.5 5.9-2 6.1-2.1.2 2.7-3.2 5.8-3.1 8.5-.1.3-.1.4-.1.7v.8c.1.5.2 1 .3 1.4.3.7 1.4 2.3 1.9 3.1zM48 171.8c.5-.9.8-1.8 1-2.6.5-1.7.8-3.2 1.4-4.7.5-1.5 1.3-2.8 2.3-3.8s2.3-1.7 3.7-2c.2 0 .3-.1.5-.2.1 1.1.2 2.2.4 3.3.3 1.7.7 3.4 1.4 5 .3.9.8 1.6 1.2 2.4.5.7 1 1.5 1.5 2.2 2.3 2.8 5.1 4.8 8.2 6.4 3.1 1.6 6.3 2.8 9.7 3.4-3.1-1.4-6.1-3-8.9-4.8-1.4-.9-2.8-1.8-4-2.9-1.3-1.1-2.5-2.2-3.4-3.4-.5-.6-1-1.3-1.4-1.9-.4-.7-.8-1.4-1.1-2.1-.7-1.4-1.1-3.1-1.6-4.6-.4-1.4-.7-2.9-.9-4.3.1-.2-.8-5.1 4.4-9.9 1.4-1.5 3-2.8 4.6-3.8 4.2-2.4 6.8-1.4 8.1-1.2.1 2 .2 3.1.3 5.1-.3.1-4.2 1-4.5 1.1-.7.3-1.5.5-2.2 1.1-.7.5-1.1 1.5-1.2 2.3-.1.9 0 1.7.1 2.5.4 3.1 1.3 6.3 3.3 8.9 1 1.3 2.3 2.4 3.6 3.2l3.9 2.4c1.3.8 2.6 1.5 3.9 2.2.8.6 1.5 1.2 2.3 1.7 1.4 1 2.9 1.8 4.4 2.6 1.4.8 2.9 1.7 4.3 2.6s2.8 1.9 4.1 2.9c.7.5 1.3 1.1 1.9 1.7.3.3.6.6.8.9.1.2.2.3.3.5l.2.3c.1.1.2.3.3.4 0 0 .1 0 .2-.1v-.1l.1-.1.1-.2.2-.4.5-.7c.3-.5.7-.9 1.1-1.4.4-.4.8-.9 1.2-1.2.4-.3.9-.7 1.4-1 2-1.2 4-2.4 5.9-3.8 1-.7 1.9-1.4 2.8-2.2.2-.2.4-.4.7-.6.2-.2.4-.4.6-.7.4-.5.7-.9 1.1-1.4 1.5-1.7 3.2-3.3 4.9-4.9l2.6-2.4c.7-.7 3.2-2.8 3.6-3.2 1.5-1.3 2.8-2.7 3.8-4.5 1-1.8.9-4 .2-6.1-1.1-2.4-5.6-5-6.9-5.8l-.1-2.5c.2.1 4.4-.9 8.1 1.4 2.5 1.6 4.6 5.3 5.3 6.7.6 1.4 1.1 2.9 1.4 4.4.1.5.5.9 1 1.1.1 0 .1 0 .2.1-.2 2-.6 4-1.4 5.8-.6 1.5-1.3 2.9-2.3 4-1 1.2-2.2 2.3-3.4 3.3-.6.5-1.2 1-1.8 1.6l-1.9 1.5c-1.3 1-2.6 2-3.9 2.9-2.6 1.9-5.3 3.8-7.9 5.8 3.1-1.3 6-2.8 8.8-4.5 2.8-1.7 5.6-3.6 8.1-5.8.6-.6 1.3-1.1 1.8-1.7l.9-.9.8-1c1.1-1.4 1.8-3 2.3-4.7.6-2 .8-4 .7-6.1 1.4.5 2.6 1.1 3.7 2.1 1.4 1.1 2.4 2.6 3.3 4.2.9 1.6 1.5 3.3 1.7 5.1.1.9.2 1.8.2 2.8 0 .5 0 1 .1 1.6 0 .3.1.6.2 1.1.1.2.2.5.4.7l.1.1-1.4 1.4c-.9.8-1.9 1.6-2.8 2.4-1.9 1.6-3.9 3.1-5.9 4.5-2 1.4-4 2.9-6.1 4-1.1.6-2.1 1.1-3.2 1.5-1.1.4-2.3.8-3.5 1.1-2.4.7-4.8 1.3-7.2 1.8-2.4.6-4.8 1.1-7.2 1.5l-3.6.6c-.6.1-1.2.1-1.7.1-.6 0-1.1-.2-1.6-.4l-.2-.1c.3-1.1.6-2.3 1-3.3.1-.2 0-.5-.1-.7s-.4-.3-.7-.3c-.5 0-.9.3-1.2.6.3-.4.8-.6 1.2-.6.2 0 .5.1.6.3.1.2.2.4.1.7-.5 1.2-.8 2.4-1.2 3.7-.3 1.2-.6 2.6-.4 3.9.2 2.6.6 5.1 1.1 7.7.1.6.3 1.3.4 1.9l.3.9c.1.3.2.6.2.9.2 1.2.2 2.5.2 3.8-.1 1.3-.2 2.6-.3 3.8-.1.6-.2 1.3-.3 1.9 0 .1-.1.3-.1.4-.1 0-.4 0-.6-.1-.5-.2-1-.6-1.3-1-.1-.1-.1-.2-.2-.3v-.3c0-.3.1-.6.1-.9.2-1.3.4-2.5.6-3.8.1-.6.2-1.3.2-1.9 0-.6 0-1.4-.1-2l-.8-3.8c-.5-2.5-1.1-5.1-1.4-7.6-.1-.6-.1-1.3-.1-1.9 0-.5.1-.9.2-1.4 0 0 .1-.4.1-.5.2-.6.3-1.2.6-1.9-.2.6-.4 1.2-.6 1.9 0 .1-.1.3-.1.4-1-.6-2.1-.9-3.3-1.1-1.3-.2-2.5-.3-3.8-.5.2-.8.4-1.5.7-2.2 0-.2-.1-.5-.2-.7s-.2-.4-.5-.6c-.5-.2-1 0-1.4.3.4-.2.9-.4 1.3-.2s.5.8.5 1.2c-.5 1.2-1 2.4-1.2 3.8-.1.6-.2 1.4-.1 2 .1.7.2 1.3.3 2 .4 2.6.9 5.2 1.4 7.8l.3 1.9c.1.6.2 1.3.2 1.9-.1 1.2-.4 2.5-.8 3.7-.4 1.2-.8 2.5-1.2 3.7-.2.6-.5 1.2-.7 1.8-.1.1-.1.2-.2.4-.2-.1-.4-.1-.7-.3-.3-.1-.6-.3-.8-.5-.1-.1-.2-.2-.4-.3l-.1-.1c0-.2.1-.5.2-.8l.3-.9 1.3-3.7c.4-1.3.8-2.5 1-3.9.2-1.4.1-2.7 0-4-.2-2.6-.7-5.2-1.2-7.8-.6-1.8-.6-3.9-.1-5.7h.1s0-.1-.1-.1c.2-.6.4-1.2.7-1.8-.3.5-.6 1.1-.8 1.7-.5-.6-.8-1.4-.6-1.9.2-.6.8-1 1.6-.9.7 0 1.4.4 2 .9.3.3.5.6.6 1 .1.3-.1.7-.5 1 .2 0 .5-.1.7-.3s.3-.5.3-.7c0-.5-.2-1-.5-1.4-.6-.8-1.5-1.4-2.5-1.5-.5 0-1.1.1-1.6.4s-.8.8-.8 1.4c-.1 1.1.6 1.8 1.4 2.2-.1.4-.2.7-.3 1.1l-5.5-.7c-2.6-.4-5.2-.6-7.8-1-2.6-.4-5.2-.8-7.7-1.3-1.3-.2-2.5-.5-3.7-.9-1.2-.3-2.4-.9-3.6-1.4-2.4-1-4.7-2.3-6.9-3.5-2.3-1.3-4.5-2.6-6.7-4-1.1-.7-2.2-1.4-3.2-2.2l-1.5-1.2-.6-.6c-.1-1 .1-1.3.3-1.6zm52 47.5-20.1.2-20.1.1c-13.2.1-26.3 0-39.5-.2.1-6.4.4-12.9 1.1-19.3.2-1.6.4-3.3.6-4.9l.2-1.2v-.3c0-.1 0-.2.1-.3l.1-.6c.2-.8.4-1.5.7-2.3 1.1-3 2.8-5.7 5-8s4.9-4.1 7.8-5.5c2.9-1.4 6-2.5 9.1-3.2l.6-.1c.4-.1.7-.2 1-.5.2-.1.3-.2.4-.4.5.8 1.2 1.4 1.9 2.1 1 .9 2 1.8 3 2.6 2.1 1.6 4.2 3.1 6.5 4.6 2.2 1.4 4.5 2.7 6.9 3.9 1.2.6 2.4 1.1 3.8 1.5 1.3.4 2.6.7 3.9 1 5.2 1 10.4 1.6 15.7 1.9 2.2.1 3.4.2 5.5.2-.1 1.2 0 2.5.2 3.7.5 2.6.8 5.2.9 7.8.1 1.3.1 2.6-.1 3.9-.2 1.2-.6 2.5-1 3.7l-1.3 3.7c-.1.3-.2.6-.3 1-.1.3-.2.6-.2 1.1v.3c0 .1.1.2.1.2l.1.1c.1.1.2.1.2.2.1.1.3.2.4.3.3.2.6.4.9.5.3.2.6.3 1.1.4h.4c.2-.1.2-.1.3-.2.1-.1.2-.2.2-.3.1-.2.2-.3.2-.5.3-.6.5-1.2.7-1.9.4-1.2.8-2.5 1.2-3.8.3-1.3.7-2.6.8-4 0-.8-.2-1.4-.3-2-.1-.6-.2-1.3-.4-1.9-.5-2.6-1.1-5.1-1.6-7.7-.1-.6-.2-1.3-.3-1.9-.1-.6-.1-1.3 0-1.9 0-.2.1-.4.1-.6 2.4.1 4.9-.1 7.2.7-.1.5-.2.9-.2 1.4-.1.6 0 1.3.1 1.9.3 2.6.7 5.1 1.1 7.7l.6 3.8c.2 1.2-.1 2.5-.3 3.7l-.7 3.8c-.1.3-.1.6-.1 1 0 .1 0 .5.1.7.1.2.2.4.3.5.5.6 1.1 1 1.7 1.3.3.1.7.3 1.3.2.3-.1.6-.4.7-.6.1-.2.1-.4.1-.5.1-.7.2-1.3.3-2 .2-1.3.2-2.6.3-3.9 0-1.3 0-2.6-.3-3.9-.1-.3-.2-.7-.3-1l-.3-.9c-.2-.6-.4-1.2-.5-1.9-.6-2.5-1.1-5-1.5-7.6-.2-1-.1-2.1.2-3.1.6.3 1.3.5 1.9.6.3.1.7.1 1 .1h1c1.3 0 2.5-.2 3.8-.3 5-.6 9.9-1.6 14.7-2.9 1.2-.4 2.4-.7 3.6-1.2 1.2-.4 2.4-1 3.5-1.7 2.2-1.3 4.2-2.8 6.1-4.4 1.9-1.6 3.8-3.2 5.6-5 .9-.9 1.8-1.8 2.6-2.8.4-.5.8-1 1.2-1.6.2.1.4.3.6.4.1 0 .1.1.2.1 5 1.4 9.9 2.9 14.2 5.5 4.3 2.5 7.7 6.2 9.6 10.7.4 1.1.8 2.3 1.1 3.5l.1.4v.4l.1.9.2 1.9c.3 2.6.5 5.1.7 7.7.3 4.7.5 9.4.5 14.1l-38.6.2c-13.2.2-26.6.4-40 .6zm4.7-30.4c-.3-.4-.4-.8-.4-1.1 0-.4.1-.7.3-1 .4-.5 1.2-.7 1.9-.6.7.1 1.5.5 1.8 1.1.2.3.2.6.1 1s-.4.7-.7 1.1c.4-.1.8-.4 1.1-.9.3-.4.3-1.1.1-1.6-.4-1-1.4-1.6-2.4-1.8-.5-.1-1-.1-1.5.1s-1 .5-1.2 1c-.2.4-.3 1-.2 1.5.3.6.7 1 1.1 1.2zM41 209.2c-.7-2.7-1.6-5.3-2.8-7.8-1.2-2.5-2.7-4.9-4.5-7-1.8-2.1-3.8-4.1-6.2-5.4 1.1.8 2.1 1.8 3 2.8 1 1 1.8 2 2.6 3.1 1.6 2.2 3 4.5 4.2 7 .6 1.2 1.2 2.4 1.6 3.7.5 1.2.9 2.6 1.4 3.8.4 1.3.7 2.6 1.1 3.9.3 1.3.6 2.7.9 4-.1-1.4-.3-2.7-.5-4.1-.2-1.3-.4-2.6-.8-4zm125.6-13.9c-1.8 1.9-3.3 4.1-4.5 6.4-1.2 2.3-2.2 4.8-3 7.3-.4 1.2-.6 2.5-1 3.8l-.6 3.9c.4-1.2.7-2.5 1.1-3.7.4-1.2.8-2.5 1.2-3.7.2-.6.5-1.2.7-1.8s.5-1.2.8-1.8c.5-1.2 1.1-2.3 1.7-3.5 1.2-2.2 2.6-4.4 4.2-6.4.8-1 1.7-1.9 2.6-2.9.9-.9 1.9-1.8 3-2.4-2.4 1.1-4.4 2.9-6.2 4.8z" fill="#18355f" stroke-width="none" opacity="1" stroke="none"></path></g><g id="svga-group-head" transform="matrix(1,0,0,1,0,0)"><g id="svga-group-ears-left-move" transform="matrix(1,0,0,1,0,0)"><g id="svga-group-ears-left" transform="matrix(1,0,0,1,0,0)"><path id="SvgjsPath4575" d="M58.8 91.7s-2.6-4.9-5.3-5.7-4.4.7-3.9 6.6 5.2 23.2 10.6 22.2c5.4-1.1.9-19.6-1.4-23.1z" fill="#f0c7b1" stroke-width="none" opacity="1" stroke="none"></path><path id="SvgjsPath4576" d="M59.8 93.6c.3.7.6 1.5.8 2.2.5 1.5 1 3.1 1.4 4.8.4 1.6.7 3.4.9 5.2.1.9.2 1.8.2 2.7 0 .9 0 1.8-.1 2.8-.1.9-.3 1.8-.7 2.5-.3.7-.8 1.2-1.2 1.5-.9.5-1.9.4-2.8-.1-.9-.5-1.8-1.5-2.6-2.7s-1.4-2.5-2-4c-.6-1.4-1.1-3-1.6-4.5s-1-3.1-1.4-4.7-.8-3.3-1.1-5-.5-3.6-.3-5.4c.1-.9.3-1.8.7-2.4s.8-1 1.3-1.2.9-.2 1.4-.1.9.3 1.4.6c.9.6 1.7 1.5 2.5 2.5s1.5 2.2 2.2 3.4c.4.5.7 1.2 1 1.9zm-3.2-5c-.8-.9-1.6-1.6-2.5-1.9-.8-.3-1.7-.4-2.5-.1-.4.2-.7.4-1 .9s-.5 1.1-.6 1.8c-.2 1.4-.2 3.2.1 4.8.2 1.7.5 3.3.9 5 .8 3.2 1.8 6.3 3.1 8.9.6 1.3 1.3 2.5 2 3.5s1.5 1.8 2.3 2.2c.4.2.8.3 1.2.3s.8-.1 1.2-.4c.3-.2.7-.6.9-1.1s.4-1.2.5-1.9c.2-1.4.1-3.1 0-4.8-.1-1.7-.4-3.3-.7-5s-.7-3.3-1.1-4.9c-.4-1.6-1-3.1-1.7-4.3-.6-1-1.3-2.1-2.1-3z" fill="#e1ac8f" stroke-width="none" opacity="1" stroke="none"></path><path id="SvgjsPath4577" d="M52.4 89.6c2.3 1.5 4.4 5.7 5.4 9.9v.1c0 .3-.2.4-.2.1-.4-1.2-.9-1.2-1.5 0-.1.8-.1 1.5.1 2.3.2.7.4 1.4.7 2 .5 1.2 1.2 2.1 1.8 3.1.2.3 0 .7-.2.6-1.4-1.1-3.4-4.7-3-7.8.2-1.5 1-2.3 1.6-1.7-.8-2.1-1.7-4-2.8-5.5-.6-.8-2-2.7-2.7-2.4-1.3.6-.6 4.8-.5 6.6 0 .3-.2.4-.3.1-.7-3.3-.8-9 1.6-7.4z" fill="#d19271" stroke-width="none" opacity="1" stroke="none"></path><path id="SvgjsPath4578" d="M58 108.6c-2.4-.9-4.2-4.8-5.2-9-.6-2.6-1.8-8.6.5-8.5.2 0 .3.5.1.6-2.2 1.1.2 9.2.9 11.1 1 2.6 2.2 4.4 3.8 5.4.1.1 0 .5-.1.4z" fill="#d19271" stroke-width="none" opacity="1" stroke="none"></path></g></g><g id="svga-group-ears-right-move" transform="matrix(1,0,0,1,0,0)"><g id="svga-group-ears-right" transform="matrix(1,0,0,1,0,0)"><path id="SvgjsPath4579" d="M141.2 91.7s2.6-4.9 5.3-5.7 4.4.7 3.9 6.6-5.2 23.2-10.6 22.2c-5.4-1.1-.9-19.6 1.4-23.1z" fill="#f0c7b1" stroke-width="none" opacity="1" stroke="none"></path><path id="SvgjsPath4580" d="M141.1 91.7c.7-1.2 1.4-2.4 2.2-3.4s1.6-1.9 2.5-2.5c.5-.3.9-.5 1.4-.6s.9-.1 1.4.1.9.5 1.3 1.2c.4.6.6 1.5.7 2.4.2 1.8 0 3.7-.3 5.4-.3 1.7-.7 3.4-1.1 5-.4 1.6-.9 3.2-1.4 4.7s-1 3.1-1.6 4.5-1.3 2.8-2 4c-.8 1.2-1.6 2.2-2.6 2.7-.9.5-1.9.7-2.8.1-.5-.3-.9-.8-1.2-1.5s-.5-1.6-.7-2.5c-.1-.9-.1-1.8-.1-2.8 0-.9.1-1.8.2-2.7.2-1.8.5-3.5.9-5.2s.9-3.2 1.4-4.8c.3-.8.5-1.5.8-2.2.4-.7.7-1.4 1-1.9zm.1.1c-.7 1.2-1.2 2.7-1.7 4.3-.4 1.6-.8 3.2-1.1 4.9-.3 1.7-.5 3.3-.7 5-.1 1.6-.2 3.3 0 4.8.1.7.3 1.4.5 1.9s.6.9.9 1.1c.3.3.8.3 1.2.4.4 0 .8-.1 1.2-.3.8-.4 1.6-1.2 2.3-2.2s1.4-2.2 2-3.5c1.3-2.6 2.3-5.7 3.1-8.9.4-1.6.7-3.3.9-5 .2-1.6.3-3.4.1-4.8-.1-.7-.3-1.3-.6-1.8-.3-.4-.6-.7-1-.9-.8-.3-1.7-.2-2.5.1-.8.4-1.7 1-2.5 1.9-.7.7-1.4 1.8-2.1 3z" fill="#e1ac8f" stroke-width="none" opacity="1" stroke="none"></path><path id="SvgjsPath4581" d="M147.6 89.6c-2.3 1.5-4.4 5.7-5.4 9.9v.1c0 .3.2.4.2.1.4-1.2.9-1.2 1.5 0 .1.8.1 1.5-.1 2.3-.2.7-.4 1.4-.7 2-.5 1.2-1.2 2.1-1.8 3.1-.2.3 0 .7.2.6 1.4-1.1 3.4-4.7 3-7.8-.2-1.5-1-2.3-1.6-1.7.8-2.1 1.7-4 2.8-5.5.6-.8 2-2.7 2.7-2.4 1.3.6.6 4.8.5 6.6 0 .3.2.4.3.1.7-3.3.8-9-1.6-7.4z" fill="#d19271" stroke-width="none" opacity="1" stroke="none"></path><path id="SvgjsPath4582" d="M142 108.6c2.4-.9 4.2-4.8 5.2-9 .6-2.5 1.8-8.5-.5-8.5-.2 0-.3.5-.1.6 2.2 1.1-.2 9.2-.9 11.1-1 2.6-2.2 4.4-3.8 5.4-.1.1 0 .5.1.4z" fill="#d19271" stroke-width="none" opacity="1" stroke="none"></path></g></g><g id="svga-group-faceshape-wrap" transform="matrix(1,0,0,1,0,0)"><g id="svga-group-faceshape-single"><path id="SvgjsPath8616" d="M143.2 82v-.3c-1.3-29.9-20.7-46.4-43.2-46.4S58.1 51.7 56.8 81.7v.3c0 2 0 17.7 1.7 28.4 1.8 11.7 5.7 15.8 14.3 26.1s16.9 19.8 21.6 19.2c0 0 4.4-.9 5.6-.9s5.6.9 5.6.9c4.7.7 13.1-8.8 21.6-19.2s12.5-14.4 14.3-26.1c1.6-10.8 1.7-26.4 1.7-28.4z" fill="#f0c7b1" stroke-width="none" opacity="1"></path><path id="SvgjsPath8617" d="M105.6 155.7c4.7.7 13.1-8.8 21.6-19.2s12.5-14.4 14.3-26.1c1.6-10.8 1.7-26.4 1.7-28.4v-.3c-1.3-29.9-20.7-46.4-43.2-46.4S58.1 51.7 56.8 81.7v.3c0 2 0 17.7 1.7 28.4 1.8 11.7 5.7 15.8 14.3 26.1s16.9 19.8 21.6 19.2c0 0 4.4-.9 5.6-.9s5.6.9 5.6.9zm-10.5-2.9c-1.1.2-2.2.1-3.2-.5-2.9-1.6-5.8-5.1-7.1-6.5-3.2-3.4-6.3-6.1-9.4-9.8s-6.4-7.2-9.1-10.9c-2.8-3.7-4.7-7.8-5.7-12.3-1.1-4.5-1.7-9.3-2.1-14.1-.4-4.8-.7-9.6-.8-14.3-.2-9.5 1.8-19.1 6.7-27.3C69.1 49 76.9 43 85.5 40c13.2-4.2 22.5-1.8 26.9-.5 8.8 2.4 16.7 8.1 22.1 15.8s8.1 17.4 8.5 26.9c-.1 8.3-.6 16.7-1.9 24.9-.3 2.1-.7 4.1-1.2 6.1s-1.2 3.9-2 5.7c-1.6 3.6-4.1 6.8-6.8 9.9-1.3 1.6-8.2 9.5-8.2 9.5-2.7 3.1-5.4 5.4-8.2 8.3-1.4 1.5-5.7 5.5-6.5 5.9-2.1 1-4 .5-4 .5-1-.2-4.4-1.1-9.1-.2z" fill="#c27b55" stroke-width="none" opacity="1"></path></g></g><g id="svga-group-mouth-single-move" transform="matrix(1,0,0,1,0,0)"><g id="svga-group-mouth-single" transform="matrix(1,0,0,1,0,0)"><path id="SvgjsPath4487" d="M84.55 124.35c2.12.93 5.56 1.69 7.85 1.77 3.19.02 6.26 2.11 7.48 2.26 2.21.07 3.75-1.85 6.79-2.37 1.47-.35 4.04.01 9.17-1.28-5.01-.22-8.57-1.27-10.43-1.25-2.27.02-3.96 1.19-5.18 1.19-.81.02-3.58-1.23-5.7-.91-4.47.67-9.98.59-9.98.59z" fill="#da7c87" stroke-width="none" opacity="1" transform="translate(0 2)" stroke="none"></path><path id="SvgjsPath4488" d="M107.46 131.85c1.42-.3 2.04-.44 3.21-1.01-2.36.13-8.45.88-10.82.8-2.64-.09-6.75-.74-9.33-1.2 1.05.53 2.75.91 3.57 1.17 0 0 4.79 1.73 13.37.24z" fill="#d19271" stroke-width="none" opacity="1" transform="translate(0 2)" stroke="none"></path></g></g><g id="svga-group-eyes-left-move" transform="matrix(1,0,0,1,0,0)"><g id="svga-group-eyes-left" transform="matrix(1,0,0,1,0,0)"><g id="svga-group-eyesback-left"><path id="SvgjsPath5583" d="M87.1 98.5s.3.9 1.3.7c1-.2 1.1-2.3 1-2.9-.1-.6-.5-3-1.7-4.2-1.2-1.2-3.1-1.7-3.1-1.7l-13.8.6s-1.1 3.4.3 5c1.3 1.7 4 3.3 6.9 3.3 2.9.1 6.7-.1 9.1-.8z" fill="#ffffff" stroke-width="none" opacity="1"></path></g><g id="svga-group-eyesiriswrapper-left" transform="matrix(1,0,0,1,0,0)"><g id="svga-group-eyesiriscontrol-left" transform="matrix(1,0,0,1,0,0)"><g id="svga-group-eyesiris-left" transform="matrix(1,0,0,1,0,0)"><path id="SvgjsPath5852" d="M77.2 88.9c2.5-1.6 5.9-.9 7.6 1.6 1.6 2.5.9 5.9-1.6 7.6-2.5 1.6-5.9.9-7.6-1.6s-.9-5.9 1.6-7.6z" fill="#40100c" stroke-width="none" opacity="1" stroke="none"></path><path id="SvgjsPath5853" d="M84.8 90.5c.4.6.7 1.3.8 2 .2.7.2 1.5.1 2.2s-.4 1.5-.8 2.1c-.4.6-1 1.2-1.6 1.6-.7.4-1.4.6-2.1.7-.7.1-1.5.1-2.2-.1-1.4-.3-2.7-1.2-3.6-2.4-.4-.6-.8-1.3-.9-2s-.2-1.5 0-2.3c.2-.8.4-1.5.9-2.1.4-.6 1-1.2 1.6-1.6.7-.4 1.4-.7 2.1-.8.8-.1 1.5-.1 2.2.1 1.5.5 2.8 1.4 3.5 2.6zm0 .1-.3-.4c-.1-.1-.2-.3-.4-.4-.1-.1-.3-.2-.4-.3-.1-.1-.3-.2-.4-.3-.6-.4-1.3-.6-1.9-.7-1.4-.2-2.7.1-3.8.8-1.1.7-1.9 1.9-2.2 3.2-.3 1.3-.1 2.7.6 3.9.3.6.8 1.1 1.4 1.5.6.4 1.2.7 1.9.8.7.1 1.4.1 2.1-.1s1.3-.5 1.8-.8c.6-.4 1-.9 1.4-1.4.4-.6.7-1.2.9-1.8.2-.7.3-1.4.2-2.1-.3-.6-.5-1.3-.9-1.9z" fill="#210300" stroke-width="none" opacity="1" stroke="none"></path><path id="SvgjsPath5854" d="M80.2 91.6c1.1 0 1.9.9 1.9 1.9s-.9 1.9-1.9 1.9-1.9-.9-1.9-1.9.8-1.9 1.9-1.9z" fill="#000000" stroke-width="none" opacity="1"></path><path id="SvgjsPath5855" d="M80.2 95.7c-1.2 0-2.1-.9-2.1-2.1 0-1.2.9-2.1 2.1-2.1s2.1.9 2.1 2.1c0 1.1-.9 2.1-2.1 2.1zm0-3.9c-1 0-1.8.8-1.8 1.8s.8 1.8 1.8 1.8 1.8-.8 1.8-1.8-.8-1.8-1.8-1.8z" fill="#120100" stroke-width="none" opacity="1" stroke="none"></path><path id="SvgjsPath5856" d="M77.7 89.5c.4-.3 1.2.3 1.7 1.1.5.9.6 1.8.1 2-.4.3-1.2-.3-1.7-1.1-.5-.9-.5-1.8-.1-2zm3.7 5c.4 0 .7.3.7.7s-.3.7-.7.7-.7-.3-.7-.7.4-.7.7-.7z" fill="#ffffff" stroke-width="none" opacity="1"></path></g></g></g><g id="svga-group-eyesfront-left"><path id="SvgjsPath5591" d="M69.4 94.6c0 6.4 4.7 11.5 10.6 11.5s10.6-5.2 10.6-11.5S85.9 83.1 80 83.1s-10.6 5.1-10.6 11.5zM71 96c-1.3-1.7-.3-5-.3-5l13.8-.7s1.9.5 3.1 1.7 1.6 3.6 1.7 4.2 0 2.7-1 2.9c-1 .2-1.3-.7-1.3-.7-2.4.8-6.2 1-9.2.9S72.4 97.7 71 96z" fill="#f0c7b1" stroke-width="none" opacity="1" stroke="none"></path><path id="SvgjsPath5592" d="M66.8 92.4c1.1-.4 2.2-.6 3.3-.8-1.6 2.6 1.1 6.1 3.5 7.2 3.8 1.8 9.4 1.4 13.4 0v.1c.6.6 1.6 1.1 2.3.3.7-.8.4-2.6.3-3.5-.3-2-1.5-4.2-3.3-5.1 1 0 1.9.1 2.8.5.6.3.7.5 1.4.7h.1c1-3.5-8-2.3-9.4-2.2-3.1.1-6.1.4-9.2.6-1.9.1-4.2 0-5.5 1.6-.3.2-.1.7.3.6zm4.3-.9c2.7-.3 5.4-.3 8.1-.5 1.9-.1 3.7-.2 5.6-.3 1.7.5 3 1.6 3.6 3.3.4 1.1 1.4 5.3-1 4.6.1 0 .2-.1.3-.1.3-.1.2-.5-.1-.5-3.6.7-7.3 1.5-11 .7-1.8-.4-3.6-1.1-4.7-2.7-1.2-1.5-1-2.8-.8-4.5z" fill="#000000" stroke-width="none" opacity="1" stroke="none"></path></g></g></g><g id="svga-group-eyes-right-move" transform="matrix(1,0,0,1,0,0)"><g id="svga-group-eyes-right" transform="matrix(1,0,0,1,0,0)"><g id="svga-group-eyesback-right"><path id="SvgjsPath5584" d="M112.9 98.5s-.3.9-1.3.7c-1-.2-1.1-2.3-1-2.9.1-.6.5-3 1.7-4.2 1.2-1.2 3.1-1.7 3.1-1.7l13.8.7s1.1 3.4-.3 5c-1.3 1.7-4 3.3-6.9 3.3-2.9 0-6.7-.2-9.1-.9z" fill="#ffffff" stroke-width="none" opacity="1"></path></g><g id="svga-group-eyesiriswrapper-right" transform="matrix(1,0,0,1,0,0)"><g id="svga-group-eyesiriscontrol-right" transform="matrix(1,0,0,1,0,0)"><g id="svga-group-eyesiris-right" transform="matrix(1,0,0,1,0,0)"><path id="SvgjsPath5857" d="M117 89c2.5-1.6 5.9-.9 7.6 1.6 1.6 2.5.9 5.9-1.6 7.6-2.5 1.6-5.9.9-7.6-1.6-1.7-2.6-1-6 1.6-7.6z" fill="#40100c" stroke-width="none" opacity="1" stroke="none"></path><path id="SvgjsPath5858" d="M124.6 90.5c.4.6.7 1.3.8 2 .2.7.2 1.5.1 2.2s-.4 1.5-.8 2.1c-.4.6-1 1.2-1.6 1.6-.7.4-1.4.6-2.1.7-.7.1-1.5.1-2.2-.1-1.4-.3-2.7-1.2-3.6-2.4-.4-.6-.8-1.3-.9-2s-.2-1.5 0-2.3c.2-.8.4-1.5.9-2.1.4-.6 1-1.2 1.6-1.6.7-.4 1.4-.7 2.1-.8.8-.1 1.5-.1 2.2.1 1.5.5 2.7 1.4 3.5 2.6zm-.1.1-.3-.4c-.1-.1-.2-.3-.4-.4-.1-.1-.3-.2-.4-.3-.1-.1-.3-.2-.4-.3-.6-.4-1.3-.6-1.9-.7-1.4-.2-2.7.1-3.8.8-1.1.7-1.9 1.9-2.2 3.2-.3 1.3-.1 2.7.6 3.9.3.6.8 1.1 1.4 1.5.6.4 1.2.7 1.9.8.7.1 1.4.1 2.1-.1s1.3-.5 1.8-.8c.6-.4 1-.9 1.4-1.4.4-.6.7-1.2.9-1.8.2-.7.3-1.4.2-2.1-.3-.6-.5-1.3-.9-1.9z" fill="#210300" stroke-width="none" opacity="1" stroke="none"></path><path id="SvgjsPath5859" d="M119.9 91.6c1.1 0 1.9.9 1.9 1.9s-.9 1.9-1.9 1.9-1.9-.9-1.9-1.9.9-1.9 1.9-1.9z" fill="#000000" stroke-width="none" opacity="1"></path><path id="SvgjsPath5860" d="M119.9 95.7c-1.2 0-2.1-.9-2.1-2.1 0-1.2.9-2.1 2.1-2.1s2.1.9 2.1 2.1c.1 1.1-.9 2.1-2.1 2.1zm0-3.9c-1 0-1.8.8-1.8 1.8s.8 1.8 1.8 1.8 1.8-.8 1.8-1.8-.8-1.8-1.8-1.8z" fill="#120100" stroke-width="none" opacity="1" stroke="none"></path><path id="SvgjsPath5861" d="M117.4 89.5c.4-.3 1.2.3 1.7 1.1.5.9.6 1.8.1 2s-1.2-.3-1.7-1.1c-.5-.9-.5-1.8-.1-2zm3.8 5c.4 0 .7.3.7.7s-.3.7-.7.7-.7-.3-.7-.7.3-.7.7-.7z" fill="#ffffff" stroke-width="none" opacity="1"></path></g></g></g><g id="svga-group-eyesfront-right"><path id="SvgjsPath5593" d="M120 83.1c-5.9 0-10.6 5.2-10.6 11.5s4.7 11.5 10.6 11.5 10.6-5.2 10.6-11.5-4.8-11.5-10.6-11.5zm2 16.3c-2.9.1-6.8-.2-9.2-.9 0 0-.3.9-1.3.7-1-.2-1.1-2.3-1-2.9s.5-3 1.7-4.2 3.1-1.7 3.1-1.7l13.8.7s1.1 3.4-.3 5c-1.2 1.6-3.8 3.2-6.8 3.3z" fill="#f0c7b1" stroke-width="none" opacity="1" stroke="none"></path><path id="SvgjsPath5596" d="M133.6 91.7c-1.3-1.6-3.6-1.4-5.5-1.6-3.1-.2-6.1-.5-9.2-.6-1.4-.1-10.4-1.3-9.4 2.2h.1c.6-.2.7-.3 1.4-.7.9-.5 1.8-.6 2.8-.5-1.8.9-3 3-3.3 5.1-.1.9-.5 2.7.3 3.5.7.8 1.7.3 2.3-.3v-.1c4 1.4 9.5 1.8 13.4 0 2.3-1.1 5.1-4.6 3.5-7.2 1.1.2 2.2.4 3.3.8.3.2.5-.3.3-.6zm-5.4 4.3c-1.1 1.5-2.9 2.3-4.7 2.7-3.7.8-7.4 0-11-.7-.3-.1-.4.4-.1.5.1 0 .2.1.3.1-2.4.7-1.4-3.5-1-4.6.7-1.7 1.9-2.9 3.6-3.3 1.9.1 3.7.2 5.6.3 2.7.1 5.4.2 8.1.5.1 1.7.3 3-.8 4.5z" fill="#000000" stroke-width="none" opacity="1" stroke="none"></path></g></g></g><g id="svga-group-facehighlight-single"></g><g id="svga-group-eyebrows-left-move" transform="matrix(1,0,0,1,0,0)"><g id="svga-group-eyebrows-left-rotate" transform="matrix(1,0,0,1,0,0)"><g id="svga-group-eyebrows-left" transform="matrix(1,0,0,1,0,0)"><path id="SvgjsPath6345" d="M71.9 81.2c.2-.2.4-.3.6-.4.2-.1.4-.2.7-.3.4-.2.8-.4 1.3-.5.5-.2 1.4-.5 1.9-.2 1.7-.6 4-.2 5.6.6 2.1.2 4.3.9 5.9 2 .1.1.2.2.2.3l.9.3c1.1.4 2.3.8 3.4 1.3.1 0 .2.1.3.1.4.2.5.7.2.9-.1.1-.1.2-.3.3-.8.6-2 .2-2.9-.1-.8-.3-1.6-.7-2.2-1.3-.8-.3-1.6-.7-2.3-1.2-.1 0-.2-.1-.3-.1-1.4-.2-2.8-.8-4-1.4h-.1c-.7-.2-1.4-.3-2.2-.3-1-.1-2 .2-3-.1h-.1c-.2.1-.4.1-.6.2-.9.3-1.6.4-2.6.4-.1 0-.2-.1-.2-.2H72s-.2-.2-.1-.3z" fill="#2a232b" stroke-width="none" opacity="1"></path><path id="SvgjsPath6346" d="M76.9 79.1c3.4-.3 6.8 1.7 9.9 2.9 1.9.7 5.8 1 6.5 3.3.1.3-.3.5-.5.2-1-1.4-2.6-1.5-4.1-2-1.3-.4-2.6-.9-3.8-1.4-2.7-1.1-5.3-1.7-8-2.4-.3-.2-.2-.6 0-.6z" fill="#3a353a" stroke-width="none" opacity="1"></path><path id="SvgjsPath6347" d="M94.4 85.2c.3-1.5-2-2.1-3.1-2.5-2.7-1.1-5.4-2.3-8.2-3.1-1.7-.5-3.4-.8-5.1-.8-1.3 0-2.6.1-3.8.5-2.2.7-4.3 1.9-6.2 3.4-1 .6-2 1.3-2.8 2.1-.2.2 0 .4.2.3.1 0 .1 0 .1-.1.1.1.1.1.2.1 1.6-.7 3.1-1.8 4.8-2.5 1.6-.7 3.4-1.1 5.1-1.2h.8c2.1 0 4.1.4 6 1.3 2.6 1.2 5.1 2.8 7.7 3.8.5.2 1 .3 1.6.2 1.3.2 2.4-.3 2.7-1.5zm-16.3-5.4c1.8 0 3.6.4 5.3 1 2.2.8 4.4 1.8 6.6 2.6.4.2 2.6.7 2.8 1.3.2.7-.3.9-.8 1-.3 0-.6-.1-.8-.1-.7-.2-1.3-.6-1.9-.9-3.4-1.7-6.9-3.9-10.8-4.1h-1.1c-1.2 0-2.5.1-3.8.3.6-.2 1.1-.4 1.7-.6.8-.4 1.8-.5 2.8-.5z" fill="#1b141c" stroke-width="none" opacity="1"></path></g></g></g><g id="svga-group-eyebrows-right-move" transform="matrix(1,0,0,1,0,0)"><g id="svga-group-eyebrows-right-rotate" transform="matrix(1,0,0,1,0,0)"><g id="svga-group-eyebrows-right" transform="matrix(1,0,0,1,0,0)"><path id="SvgjsPath6348" d="M128.1 81.2c-.2-.2-.4-.3-.6-.4-.2-.1-.4-.2-.7-.3-.4-.2-.8-.4-1.3-.5-.5-.2-1.4-.5-1.9-.2-1.7-.6-4-.2-5.6.6-2.1.2-4.3.9-5.9 2-.1.1-.2.2-.2.3l-.9.3c-1.1.4-2.3.8-3.4 1.3-.1 0-.2.1-.3.1-.4.2-.5.7-.2.9.1.1.1.2.3.3.8.6 2 .2 2.9-.1.8-.3 1.6-.7 2.2-1.3.8-.3 1.6-.7 2.3-1.2.1 0 .2-.1.3-.1 1.4-.2 2.8-.8 4-1.4h.1c.7-.2 1.4-.3 2.2-.3 1-.1 2 .2 3-.1h.1c.2.1.4.1.6.2.9.3 1.6.4 2.6.4.1 0 .2-.1.2-.2h.1s.2-.2.1-.3z" fill="#2a232b" stroke-width="none" opacity="1"></path><path id="SvgjsPath6349" d="M123.1 79.1c-3.4-.3-6.8 1.7-9.9 2.9-1.9.7-5.8 1-6.5 3.3-.1.3.3.5.5.2 1-1.4 2.6-1.5 4.1-2 1.3-.4 2.6-.9 3.8-1.4 2.7-1.1 5.3-1.7 8-2.4.3-.2.2-.6 0-.6z" fill="#3a353a" stroke-width="none" opacity="1"></path><path id="SvgjsPath6350" d="M108.2 86.8c.5 0 1.1-.1 1.6-.2 2.7-1 5.1-2.7 7.7-3.8 1.9-.9 3.9-1.3 6-1.3h.8c1.8.1 3.5.6 5.1 1.2 1.7.7 3.1 1.7 4.8 2.5.1 0 .2 0 .2-.1 0 0 .1 0 .1.1.2.1.4-.1.2-.3-.8-.8-1.7-1.5-2.8-2.1-1.9-1.4-4-2.7-6.2-3.4-1.2-.4-2.5-.6-3.8-.5-1.7 0-3.4.3-5.1.8-2.8.8-5.5 2-8.2 3.1-1.1.4-3.4 1-3.1 2.5.4 1.1 1.5 1.6 2.7 1.5zm16.7-6.6c.6.2 1.2.4 1.7.6-1.3-.2-2.6-.4-3.8-.3h-1.1c-3.9.2-7.4 2.4-10.8 4.1-.6.3-1.2.7-1.9.9-.2.1-.5.1-.8.1-.6 0-1.1-.3-.8-1 .2-.6 2.4-1.1 2.8-1.3 2.2-.9 4.4-1.9 6.6-2.6 1.7-.6 3.5-1 5.3-1 .8.1 1.8.2 2.8.5z" fill="#1b141c" stroke-width="none" opacity="1"></path></g></g></g><g id="svga-group-beardwrap" transform="matrix(1,0,0,1,0,0)"><g id="svga-group-beard-single-move" transform="matrix(1,0,0,1,0,3)"><g id="svga-group-beard-single" transform="matrix(0.9499997000000001,0,0,0.9499997000000001,4.9940185732456115,6.389223477627937)"><path id="SvgjsPath7030" d="M143.3 88.3c-.4-1.3-2.9-2.1-3.2.2-1.5 10.8-5.7 31.9-11.1 35.3-1.3.6-2.2 1.4-3.8 1.6 1-.4 1.8-1 2.6-1.6 1.9-1.3 6.4-5.2 2.2-9.9-3.2-3.6-6.2 1.5-6.2 1.5s1-.9 2.9-.6c3 .4 1.6 4.5-2.7 5.2s-4.6-3-11.2-2.7c-6.7.4-12.4 2.3-12.4 2.3s-5.3-1.9-12-2.3c-6.7-.4-6.8 3.4-11.2 2.7-4.4-.8-5.8-4.8-2.7-5.2 1.9-.3 2.9.6 2.9.6s-3-5.1-6.2-1.5c-4.2 4.7.3 8.6 2.2 9.9.5.3.9.7 1.4 1-1.7 0-4.6-1.6-5.9-3.5-1.9-2.8-6.1-14-7.2-19.5-.7-3.5-1.5-13.1-1.7-14.1s-2.8-.6-3.4.6-2.4 21.3-2.4 21.3c-.3 7.3-.9 16.5 2.1 22.1 1.8 3.9 10.5 15.7 10.5 15.7l-.6-2.1c4.8 4.6 15.2 12.2 15.2 12.2l-.2-1.3C84.7 159 98 167.5 98 167.5l.2-1.3 2.1 1.5s4.9-.6 7.8-2.7 10.5-8.2 10.5-8.2l.2 1.5c4.6-4 11.2-10.8 11.2-10.8l-.6 2.9s13-13.9 14.6-18.5c1.3-3.7 2.3-8.9 2-17.7-.7-12.7-2.4-24.5-2.7-25.9zm-25.1 44.6c-1.1 1.3-11 11-11.4 10.5-.4-.6-1.1-5.3-1.1-5.3-1.7.6-12.9-.2-12.9-.2 0 1.1-1.1 5.5-1.1 5.5l-10.7-11s0-4.3-.3-6.2c.3 0 .5 0 .8-.1 4.8-.4 15.1-.7 19-1.9 3.7 1.1 13.4 1.5 18.4 1.8 0 1.5.2 5.8-.7 6.9z" fill="#312824" stroke-width="none" opacity="1"></path><path id="SvgjsPath7031" d="M56.1 98.9c.3-2.6.5-5.3.8-7.9 0-.2-.1-.2-.2-.2l.3-2.7c0-.2-.3-.2-.3 0-.2 1.7-.4 3.3-.5 4.9v.1c-.3 1.9-.5 3.8-.4 5.8-.1.2.3.2.3 0zm-.5 8c.2-2.9.2-5.8.3-8.7 0-.2-.3-.2-.3 0-.1 2.9-.3 5.8-.3 8.7 0 .2.3.2.3 0zm-1.9 3.8c-.3 4.7-.2 9.7.6 14.3 0 .1.2.1.2 0-.1-4.8-.4-9.6-.5-14.3-.1-.2-.3-.1-.3 0zm1.6-4.3c-.2.8-.3 1.7-.5 2.5.1-2.7.2-5.4.4-8.2 0-.2-.3-.2-.3-.1-.8 4.3-1.1 8.7-.7 13-.2 2.6-.1 5.1.3 7.6 0 .2.4.2.4-.1-.1-5-.1-9.9.6-14.9.2.1-.1.1-.2.2zm3.9 29.1v-.1c0-.1-.1-.1-.1-.2-.9-2.1-1.6-4.2-2.2-6.4.1.2.4.1.3-.1-1-4.8-1.7-9.4-1.6-14.3 0-.2-.2-.2-.3 0-.3 4-.1 8.1.9 12-.1 0-.3 0-.3.2.2 1.9.6 3.9 1.2 5.7-.8-1.5-1.5-3-2-4.8 0-.2-.3-.1-.3 0-.1-.9-.2-1.8-.3-2.6 0-.2-.2-.2-.3 0-.1 2.1.2 4.7 1.1 6.6 0 .1.2 0 .2-.1-.2-1-.5-2-.6-3 0-.2 0-.3-.1-.5.4 2.4 1.5 5 3.1 6.8.4 1 .9 1.9 1.5 2.9.1.2.5 0 .4-.2-.1-.6-.4-1.3-.6-1.9zm.4-6c0-.2-.3-.2-.3 0-.3 4.4.6 9.1 3.3 12.7.2.3.6 0 .5-.3-2.2-3.9-3.5-7.8-3.5-12.4zm2.8 6.8c-.1-.3-.5-.2-.5.1.6 4.1 2.2 8.1 5.2 11 .2.2.5-.1.3-.3-2.2-3.3-4.1-6.7-5-10.8zm2.4 3.8c-.1-.3-.6 0-.4.2 2.1 4.4 5.1 8.5 9 11.5.2.1.4-.1.2-.3-3.5-3.4-6.5-7-8.8-11.4zm5.8 5.3c-.2-.2-.5 0-.4.2 2.7 4 5.7 7.9 9.7 10.8.2.1.4-.2.2-.3-3.2-3.5-6.6-6.8-9.5-10.7zm17.5 14c-.1-.1-.1-.1-.2 0-.7-1.1-1.8-2.1-2.8-3-.2-.2-.6.1-.3.3 1.1 1.1 1.9 2.4 3 3.4.1.1.3.1.3-.1 1.1.9 2.2 1.9 3.3 2.8-3.1-2.2-6.3-4.3-9.4-6.5l.9.6c.2.1.5-.2.3-.4-2.4-2.2-4.9-4.1-7.1-6.6-.1-.2-.4.1-.3.2 1.4 1.8 3 3.7 4.9 5.2-.1-.1-.2-.1-.2-.2-.2-.1-.4.1-.2.2 3.7 3.1 7.6 6.1 11.9 8.4.2.1.3 0 .3-.2 1.9 1.5 3.8 2.9 5.8 4 .2.1.5-.2.3-.4-3.3-2.6-7.1-5-10.5-7.7zm9.2 5.5-1.6-1.8c.2.1.3.2.5.3.2.1.4-.1.2-.3-.6-.7-1.4-1.4-2.1-2.1-.4-.4-.8-.8-1.1-1.3l.8.8c.5.5 1 1.1 1.6 1.6.2.1.4 0 .3-.2-.9-1.2-2.1-2.2-3.1-3.2-.1-.1-.3 0-.3.1 0-.1-.1-.1-.1-.1-.1-.2-.4 0-.4.1-1-1.2-2.1-2.3-3.2-3.4-.2-.2-.4.1-.2.2 1.6 1.9 3.1 3.9 4.9 5.6.1.1.2 0 .3-.1.4.5.9 1 1.4 1.5-.2 0-.4.3-.2.6l2 2.2c.6.7 1.2 1.4 1.9 2 .2.2.5-.2.4-.4-.7-.8-1.4-1.4-2-2.1zm1.5-.2c-.2-.2-.6.1-.4.4.3.4.6.7 1 1 .2.1.3-.1.2-.2-.1-.4-.5-.8-.8-1.2zm-40.2-65c.2-2.3.2-4.6.2-6.9 0-.2-.3-.2-.3 0-.2 2.3-.3 4.6-.2 6.9 0 .2.3.2.3 0zm.9 8.6c.3-2.9.4-5.8.2-8.7 0-.2-.3-.2-.4 0-.3 2.9-.3 5.8-.2 8.7.1.2.4.2.4 0zm.3 6.5c.6-2.9.9-6.1 1.2-9.1 0-.2-.2-.2-.3 0-.6 3-1.1 6-1.3 9-.1.3.3.3.4.1zm1.3 4.9c.3-2.6.3-5.2.5-7.8 0-.2-.3-.2-.3 0-.2 2.6-.5 5.2-.5 7.8 0 .2.3.2.3 0zm.3 3.4c-.1 2.8-.1 5.7.3 8.4 0 .2.3.1.3 0-.1-2.8-.3-5.6-.2-8.4 0-.2-.4-.2-.4 0zm2.5 14.4c-.6-3.5-1-6.8-.7-10.3 0-.3-.4-.3-.5 0-.4 3.5-.4 7.1.7 10.4.1.3.6.2.5-.1zm2.9 4.4c-.8-2.7-1.6-5.4-2-8.1 0-.2-.4-.2-.4.1.3 2.8.9 5.6 2.1 8.2.1.1.4 0 .3-.2zm2.6 2.2c.1.2.4.1.4-.2-.7-2.1-1.7-4-2.3-6.1-.1-.3-.6-.2-.5.1.5 2.2 1.2 4.4 2.4 6.2zm3.3 1.4c.3.9.7 1.6 1.2 2.3.1.2.4.1.4-.1-.5-2-1.6-3.9-2.2-5.9-.1-.3-.5-.2-.4.1.2.8.4 1.6.6 2.5-.6-1.2-1.3-2.4-1.7-3.8-.1-.3-.6-.2-.5.1.5 1.6 1.2 3.4 2.3 4.8.1.1.2.1.3 0zm14.1 10.9c.2.1.4-.1.2-.2-1.5-1.7-3.2-3.4-4.7-5.1-.2-.3-.5-.7-.7-1-.2-.3-.6 0-.4.2.9 1.7 1.9 3.6 3.5 4.9.2.1.5 0 .3-.3-.1-.2-.2-.4-.4-.5.8.8 1.5 1.4 2.2 2zm2.2 1.2s.1 0 0 0c.9 1 1.8 2 2.8 2.8.1.1.3-.1.2-.2-1.6-1.7-3.2-3.3-4.5-5.1-.1-.1-.2-.1-.2 0-.1-.1-.2-.3-.3-.4-.2-.2-.4.1-.3.3.7.8 1.4 1.8 2.3 2.6zm8.8 5c-.2-.2-.5 0-.5.2l-.1-.1c-.5-.6-1.1-1.1-1.6-1.7-.1-.1-.4.1-.3.2.4.6.8 1.2 1.3 1.7.4.5.7 1.2 1.3 1.4.1 0 .2-.1.2-.1 0-.1-.1-.2-.1-.3l.7.7c.4.5.8 1.1 1.3 1.6.2.2.4 0 .3-.3-.4-1.3-1.5-2.4-2.5-3.3zm44.5-75.1c-.1-.2-.4 0-.4.1 1.1 2.3 1.8 4.6 2.3 7-.1-.1-.4 0-.3.1.4 4.8.6 9.7.9 14.6-.5-2.1-1-4.2-1.7-6.3-.1-.2-.5-.1-.4.1 1.9 6.5 3 13 3 19.8 0 .2.5.2.5-.1.1-4-.3-8-1.1-11.9.1 0 .1-.1.1-.1.4-4.4.1-8.8-.5-13.1.1 0 .2 0 .2-.1.1-3.5-.8-6.9-2.6-10.1zm1.1 43c-1.1 2.8-2.6 5.2-4.3 7.7-.2.2.2.5.4.3 2.2-2.1 3.6-5 4.3-7.9.1-.3-.3-.3-.4-.1zm.9-18c0-.2-.4-.2-.4 0 .5 5.3.5 10.6.8 15.9-.1.8-.2 1.6-.5 2.5-.4 1.4-1.1 2.6-1.9 3.9-.1.1-.1.2-.1.3-.1.2.1.4.3.2 1.1-1.4 2.1-3.3 2.6-5.2.1 0 .2-.1.2-.2.5-5.8-.2-11.8-1-17.4zm-11 31.3c-.9 2.2-2.3 4.1-3.8 5.9-.1.1.1.3.2.2 1.9-1.6 3.1-3.6 4-5.9.1-.3-.3-.5-.4-.2zm-3 1.7c-2.1 2.8-4.3 5.4-6.7 7.9.2-.4.4-.9.6-1.4.1-.2-.3-.4-.4-.1-.6 1.2-1.3 2.4-2.1 3.4-.4.4-.9.9-1.3 1.4-.1.1-.1.2 0 .3-.8.9-1.8 1.7-2.7 2.5-.1.1 0 .3.2.2 1.5-.8 2.8-2 3.9-3.3 3.7-2.8 7-6.6 9.1-10.6.1-.3-.4-.6-.6-.3zm-10.5 9c-2.1 2.8-4.5 5.3-6.8 7.9-.2.2.1.6.3.4 2.8-2.1 5.2-5.1 7-8 .2-.4-.3-.6-.5-.3zm-4.8 5.1c.3-.3-.2-.7-.4-.4-1.9 1.9-4 3.5-6.1 5.1.4-.5.9-1 1.3-1.5.1-.2-.1-.4-.2-.2-1.9 1.8-4 3.2-6 4.8-.2.2.1.4.3.3 1.2-.5 2.2-1.2 3.2-2 .1.1.2.1.3.1 2.8-1.4 5.4-3.8 7.6-6.2zm-10.4 5.7c-1.3.7-2.9 1.6-3.8 2.9-.1.2.1.4.3.3 1.3-.8 2.3-2 3.7-2.8.2-.1 0-.5-.2-.4zm-3.2 1.3c.1-.2-.2-.3-.3-.2-.2.3-.4.5-.4.8 0 .1.1.2.2.1.2-.1.3-.4.5-.7zm-24.9-17.2c-1.1-1.7-2.2-3.3-2.7-5.3-.1-.2-.4-.1-.3.1.5 2 1.3 4 2.8 5.4.1.2.3 0 .2-.2zM79 151c-.6-1.5-1.8-2.9-2.7-4.2-.2-.2-.5 0-.4.2.9 1.4 1.7 3 2.8 4.2.1.1.4 0 .3-.2zm2 1.2c-.6-1.7-1.8-3.3-2.6-5-.1-.2-.6-.1-.4.2.7 1.7 1.4 3.7 2.7 5 .1.1.4 0 .3-.2zm2.2 1.9c-.7-1.6-1.9-3.1-2.6-4.7-.1-.3-.7-.1-.5.2.7 1.6 1.5 3.5 2.8 4.8.2.2.4 0 .3-.3zm17.3 9.2c.1.5.3.9.4 1.4.1.4.2.9.5 1.3.2.2.6.2.6-.2s-.2-.9-.4-1.3c-.2-.5-.3-.9-.5-1.4-.2-.3-.7-.2-.6.2zm-30.8-32.2c-.2-1.6-.5-3.1-.9-4.7 0-.1-.2-.1-.2 0 .2 1.6.5 3.1.8 4.7.2.1.3.1.3 0zm1.5 3.3c-.4-1.7-.8-3.4-.9-5.2 0-.2-.3-.2-.3 0 .1 1.8.3 3.6.9 5.3.1.1.3.1.3-.1zm1.7 3.2c-.2-1.8-.6-3.6-1-5.4 0-.2-.3-.1-.3.1.3 1.8.5 3.6 1 5.4 0 .1.3 0 .3-.1zm.3-2.2c.2 1.8.7 3.5 1.7 5 .1.1.3 0 .2-.1-.8-1.6-1.3-3.2-1.6-4.9 0-.2-.3-.2-.3 0zm1.4 1.2c.4 1.9 1 3.8 2.2 5.4.1.1.3 0 .2-.1-.8-1.8-1.6-3.5-2-5.4-.1-.3-.4-.2-.4.1zm1.9 1.8c.7 2.1 1.5 4.4 2.8 6.2.1.1.4.1.3-.1-.9-2.1-1.9-4-2.7-6.2 0-.3-.5-.2-.4.1zm2.6 3.5c.6 1.3 1.1 2.7 1.9 3.8.1.2.4.1.3-.1-.4-1.4-1.2-2.7-1.8-3.9-.2-.3-.6-.1-.4.2zm1.7 1.6c.6 1.7 1.3 3.5 2.4 4.9.2.2.4-.1.3-.2-.7-1.6-1.6-3.1-2.3-4.7 0-.4-.4-.3-.4 0zm2 2.9c.9 1.7 1.9 3.5 3.2 4.8.2.1.4 0 .3-.2-1-1.6-2.2-3.1-3.2-4.8-.2-.2-.4 0-.3.2zm5.3 5.6c-.4-.9-1.2-1.8-1.7-2.7-.1-.1-.3 0-.2.1.6.9 1.1 1.9 1.7 2.7 0 .2.2 0 .2-.1zm2.2-4.4c0 2.5.7 5 2.3 6.9.2.2.4-.1.3-.2-1.1-2.2-1.9-4.2-2.2-6.6 0-.3-.4-.3-.4-.1zm5.7 10.9c-.9-2.1-2-4.1-2.8-6.3-.1-.2-.4-.1-.3.1.7 2.2 1.5 4.5 2.8 6.4.1.2.4.1.3-.2zm2.8 3.7c-1.1-2.1-2.3-4-3.1-6.3-.1-.3-.6-.2-.5.1.6 2.3 1.5 4.7 3.2 6.4.3.3.6.1.4-.2zm-4.9-16.1c-.1-2.4-.3-4.7-.3-7.1 0-.2-.3-.2-.4 0-.2 2.4-.3 4.8.2 7.1.1.4.5.3.5 0zm.3-2.7c-.5 2.5-.4 5.2.7 7.5.1.2.4.1.4-.2-.6-2.5-1-4.8-.7-7.3.1-.2-.3-.3-.4 0zm2.6 9.9c-.1-1.6-.4-3.1-.6-4.7 0-.3-.4-.3-.4 0 .1 1.6.1 3.2.6 4.7 0 .3.4.3.4 0zm6 6.8c0 .1.2.1.2 0 .1-1.6-.1-3.1-.2-4.7 0-.1-.2-.2-.3-.1v-.4c0-.1-.1 0-.1 0 .1.2 0 .4-.1.6 0 .1.1.1.1.1.1-.1.1-.2.1-.3v.1c.1 1.6.2 3.1.3 4.7zm1.5 1.6c.1-1.4 0-2.9.1-4.4 0-.2-.4-.2-.4 0-.1 1.4-.3 3-.1 4.4 0 .3.4.2.4 0zm1.6-.9c.2-1.4 0-3 0-4.4 0-.3-.5-.3-.5 0 0 1.4-.2 3 0 4.4.2.1.5.2.5 0zm-1.6-9.7c-.1-2.1-.7-4.2-1.2-6.2-.1-.2-.3-.1-.3.1.5 2 .8 4.1 1.2 6.1.1.1.4.1.3 0zm.6-3.6c-.2-1.1-.4-2.2-.7-3.3 0-.1-.3-.1-.2.1.2 1.1.4 2.2.7 3.3 0 0 .2 0 .2-.1zm.7-1.5c0-1.7-.5-3.5-1-5.2-.1-.2-.5-.1-.4.1.5 1.7.7 3.4 1 5.1 0 .2.4.2.4 0zm.8.1c-.1-2.2-.7-4.5-1.4-6.6 0-.1-.2-.1-.2.1.6 2.2.9 4.4 1.3 6.6 0 .2.3.1.3-.1zm4.3 6.5c-.3 2.9-.9 5.7-1.5 8.5-.1.2.2.3.3.1 1.1-2.7 1.5-5.7 1.5-8.6 0-.2-.3-.2-.3 0zm1.5 6.1c1-1.4 1.3-3.5 1.5-5.2 0-.3-.5-.3-.5 0-.1.9-.3 1.8-.5 2.7-.2.8-.6 1.6-.7 2.4-.1.1.1.2.2.1zm1.7-.6c1-1.4 1.5-3.3 1.8-4.9.1-.4-.5-.5-.5-.1-.4 1.7-1.2 3.2-1.7 4.8-.1.3.3.4.4.2zm1.8-1c.4-.5.5-1.1.8-1.7.3-.7.5-1.4.8-2.2.1-.4-.4-.5-.6-.1-.3.7-.5 1.4-.8 2-.2.6-.6 1.2-.6 1.8.1.2.3.3.4.2zm2.2-1.7c.7-1.2 1-2.6 1-4 0-.3-.4-.3-.5 0-.1 1.4-.5 2.6-.9 3.8 0 .2.3.4.4.2zm4-7.2c-.4 1.1-1 2.2-1.3 3.3 0 .1.2.2.2.1.6-1 .9-2.2 1.4-3.3.1-.3-.2-.4-.3-.1zm3.1-3.6c-.3.8-.6 1.7-.9 2.5-.3.8-.7 1.6-.9 2.5 0 .2.2.3.3.1.9-1.4 1.4-3.4 1.9-5 .2-.3-.3-.4-.4-.1zm.5 4c.6-1.3.9-2.9 1.2-4.2.1-.2-.3-.3-.4-.1-.5 1.3-1.1 2.8-1.2 4.2 0 .2.3.4.4.1zm2.8-4.8c-.1.5-.2.9-.3 1.4 0 .1.2.2.2 0 .2-.4.2-.9.3-1.4.1-.1-.2-.2-.2 0zm2.9-5.6c-.1 1.9-.5 3.7-.8 5.6 0 .3.4.3.5.1.7-1.7.8-3.8.8-5.6 0-.5-.5-.5-.5-.1zm1.2 4.8c.5-1.5.5-3.3.8-4.9 0-.2-.3-.4-.4-.1-.3 1.6-.8 3.4-.7 5 0 .2.3.2.3 0zm.7-1.8c0 .2.3.2.4.1.3-.6.3-1.3.4-1.9.1-.7.2-1.5.3-2.2.1-.3-.4-.5-.5-.1l-.4 2.3c-.1.6-.2 1.2-.2 1.8zm7.6-5c.1-.1-.2-.3-.3-.1-.7 1.3-1.4 2.7-2.1 4l-.6.9c.4-.9.7-1.9.9-2.8.1-.3-.3-.3-.4-.1-1.1 2.8-2.6 5.2-4.3 7.7-.2.2.2.5.4.3.6-.6 1.2-1.3 1.7-2h.1c2.1-2.1 3.6-5.2 4.6-7.9zm-5.4 3.4c.4-1.1.5-2.4.6-3.6.1-.3-.4-.4-.4-.1-.2 1.2-.5 2.4-.6 3.7 0 .1.4.2.4 0zm.6-5.5c0-3-.3-5.9-.6-8.9 0-.2-.4-.2-.4 0 .1 3 .1 6 .6 8.9 0 .3.4.2.4 0zm.7-3.6c0-1.6-.4-3.3-.6-4.9 0-.2-.4-.2-.4.1.2 1.6.3 3.3.7 4.9.1.1.3.1.3-.1zm.5-4.1c.1-1.6-.3-3.3-.5-5 0-.2-.3-.2-.3 0 .1 1.7 0 3.4.4 5 .1.3.4.3.4 0zm.8-5.5c.1-.7 0-1.6 0-2.3 0-.2-.4-.2-.4 0 0 .8-.1 1.6 0 2.3.1.2.4.2.4 0zm1-9.2c0-1.2-.3-2.5-.5-3.7 0-.3-.5-.2-.4.1.2 1.2.2 2.4.6 3.6 0 .3.3.2.3 0zm.8-2.4c0-1.6-.4-3.3-.7-4.9-.1-.2-.4-.1-.3.1.3 1.6.4 3.2.7 4.8 0 .2.3.2.3 0zM118 132.4c-.7 2.6-1.6 5-2.4 7.5-.1.2.3.4.4.2 1.3-2.3 2-4.9 2.4-7.6.1-.3-.3-.4-.4-.1zm-4.5 9.4c1-1.8 1.8-3.7 2.6-5.5.1-.2-.2-.4-.3-.2-.9 1.9-1.8 3.7-2.6 5.6 0 .2.2.2.3.1zm0-3.3c-.8 1.3-1.6 2.5-2.2 3.9-.1.1.1.2.2.1.9-1.2 1.7-2.5 2.4-3.7.1-.3-.3-.6-.4-.3zm-35.1-12c.7.1 1.3.2 2 .2-1 2.7-.5 6.6.9 9 .1.2.4.1.4-.1.3.9.7 1.7 1.2 2.6.1.2.5.1.4-.2-.9-2.5-1.8-4.9-2.5-7.5 0-.1-.1-.1-.1-.1 0-1.2.1-2.4.1-3.6 2.5.1 5.2-.4 7.6-.7 3.9-.4 7.8-.7 11.6-1.4.1 0 .1 0 .1-.1 5.3 1.2 12.2 2.8 18.4 2.2.1 2.3.3 4.5.2 6.8 0 .2.3.3.4.1.5-2.2.7-4.7.1-6.9 3.9-.4 7.5-1.7 10.2-4.4.2-.2-.1-.4-.3-.3-.5.4-.9.7-1.4 1 1.4-1.5 2.3-3.4 2.4-5.5 0-.2-.3-.2-.3 0-.4 2.4-1.4 4.5-3.1 6.1-1.7.9-3.4 1.4-5.2 1.8 2.3-1.1 4.3-3 5.1-5.4.1-.3-.3-.5-.5-.2-1.7 3-4.1 5.2-7.4 5.9-1.2.1-2.5 0-3.8-.1 3.6-.6 7-2.5 9.2-5.5.2-.2-.2-.4-.3-.3-3.4 3.3-7.2 5.3-11.7 5.4-4.3-.6-8.6-1.6-12.6-1.8.8-.9 1.2-2.1 1.1-3.2 0-.2-.4-.3-.5-.1-.3 1.7-1.1 2.9-2.4 3.9-3.3.3-7 1-10.6 1.3-2.9-.6-5.2-2.1-7.2-4.3-.2-.2-.5.1-.3.3 1.3 2.1 3.4 3.6 5.8 4.2-2.8.2-5.5.1-7.8-.6-.5-.4-1-.7-1.4-1.2-.7-.8-1.1-1.6-1.5-2.5-.1-.2-.3-.1-.3.1.2 1.1.9 2.2 1.8 3.1-2.8-1.2-5.1-3.4-6.4-7.3-.1-.2-.4-.1-.3.1 1 4.6 4.3 8.2 8.9 9.2zm7.5 15.1c-.7-1.9-1.7-3.7-2.7-5.5-.1-.2-.4 0-.3.2.8 1.9 1.6 3.7 2.7 5.4.1.2.4.1.3-.1zm-.2-2.1c.6 1.2 1.2 2.6 2.1 3.6.2.2.5 0 .4-.2-.4-1.3-1.3-2.5-2-3.6-.3-.3-.7-.1-.5.2zm-15.6-22.9c1.2-3.1 4.5-3.8 6.7-1.3.2.2.5-.1.3-.3-1.8-3.3-7.2-2.2-7.5 1.6.1.2.4.2.5 0zm13.1 3.8c-.2-.1-.3.2-.2.3 3.7 1.8 7.7 4.5 12 3.8.2 0 .1-.3 0-.3-4.2 0-8-2-11.8-3.8zm41.3-5.6c1.4-2.3 5.1-.2 5.7 1.7.5 1.7 0 3.4-.6 5.1-.1.2.3.4.4.2 1.9-1.9 2.1-5.7-.1-7.5-1.6-1.3-5.1-2.4-5.8.3 0 .3.3.4.4.2zm-23.4 5c5.6-.9 11.3-2.4 16.9-1.4.1 0 .2-.2.1-.2-4.7-2.5-12.3-.1-17.1 1.2-.3 0-.2.5.1.4zm-21.8 1.3c7.1-4.1 13.7-2.8 21.3-1.2.3.1.4-.3.1-.4-6.8-2.6-15.7-4.1-21.6 1.2-.2.2 0 .5.2.4z" fill="#221915" stroke-width="none" opacity="1"></path></g></g></g><g id="svga-group-mustache-single-move" transform="matrix(1,0,0,1,0,0)"><g id="svga-group-mustache-single" transform="matrix(1,0,0,1,0,0)"><path id="SvgjsPath7235" d="M73.9 130.6c-.2.1 9.4-16 25.9-15.3s23.3 9.9 27.2 16c0 0-3.8-1.3-4.8-1.7s-3.8-4.4-3.8-4.4 1.6 3.3 1.7 3.7c.1.4-4.1-1.1-6-2.3-1.9-1.2-3.6-3.5-3.6-3.5l1.9 3.6s-4.3-.8-5.5-1.3c-1.2-.5-3.1-3.4-3.1-3.4l1.6 3.1s-1.6.2-2.3-.3-1.5-3.1-1.5-3.1.1 2.9-.2 3c-.3.2-2.9.7-2.9.7l1-3s-1.2 2.9-1.9 3-4.6.6-6.2 1-4.3.9-5.2 1.2c0 0 .5-2.6 1-3.7 0 0-1.8 2.7-2.6 4.2 0 0 .6-3 .9-3.8 0 0-1.7 2.2-2.4 3.7 0 0-.5.6-3.1 1.3-2.8.6-3.8.5-6.1 1.3z" fill="#2a232b" stroke-width="none" opacity="1"></path><path id="SvgjsPath7236" d="M104.3 117c1.7 2.4 3.2 4.8 4.6 7.4.1.1.2 0 .2-.1-1-2.7-2.6-5.4-4.5-7.5-.1-.1-.3 0-.3.2zm2.7 1.2c-.1-.1-.3 0-.2.2 1 1.3 1.9 2.7 2.9 4 .1.1.2 0 .2-.1-.9-1.5-1.9-2.8-2.9-4.1zm1.5-.1c-.2-.1-.4.1-.2.2 1.4 1.4 2.6 2.8 3.8 4.3.9 1.2 1.7 2.6 2.7 3.8.1.1.2 0 .2-.1-1.4-3.1-4.1-5.9-6.5-8.2zm3.1 1.4c-.2-.2-.4.1-.3.3 2 2.1 3.6 4.3 5.3 6.6.1.1.3 0 .2-.2-1.3-2.5-3.3-4.7-5.2-6.7zm2.8 1.1c-.1-.1-.2 0-.2.1 1.2 1.6 2.3 3.2 3.4 4.9.1.1.3 0 .2-.1-.9-1.8-2.1-3.4-3.4-4.9zm7 6.1c-1.1-2.1-3-3.8-4.9-5.1-.1-.1-.3.1-.2.2 1.9 1.5 3.3 3.2 4.8 5.1.2.2.4 0 .3-.2zm-17.1-9.1c.1.1.2 0 .1-.1-.1-.3-.3-.5-.6-.7-.1-.1-.3.1-.3.2.8 2 1.8 4.1 3 5.9.1.1.2 0 .2-.1-.6-1.7-1.5-3.5-2.4-5.2zm-2.1-1.1c.4 1.4.8 2.9 1.4 4.2.1.2.3 0 .3-.1-.3-1.4-.9-2.9-1.5-4.2 0-.2-.2-.1-.2.1zm-1 .3c.6 2.3 1 4.7 1.6 7 .1.2.4.2.3-.1-.3-2.4-.9-4.7-1.6-7-.1-.2-.4-.1-.3.1zm-.5.5c.1 1.4-.1 2.9-.1 4.3 0 .2.2.2.3 0 .3-1.4.3-2.9.1-4.4 0 0-.3 0-.3.1zm-.9.3c-1.2 1.8-2.5 4.1-2.7 6.3 0 .2.2.2.3 0 .8-2.2 1.4-4.2 2.7-6.2 0-.1-.2-.3-.3-.1zm-1.9.3c-1.1 1.9-2 4.1-2.3 6.3 0 .2.3.2.3.1.6-2.1 1.2-4.2 2.3-6.1.2-.4-.1-.6-.3-.3zm-1.3.8c-1.1 1.4-2.2 3.1-2.7 4.8-.1.2.2.3.3.1.8-1.7 1.5-3.3 2.6-4.8.1 0-.1-.2-.2-.1zm-1.7.3c-1.2 1.7-2.4 3.6-3 5.7-.1.2.3.3.4.2 1-1.9 1.8-3.8 3-5.6.1-.3-.2-.5-.4-.3zm-1.1.2c.1-.1-.1-.3-.2-.1-1.2 1.8-2.7 4-3.1 6.1 0 .2.2.3.3.1.5-1 .9-2.1 1.3-3.1.5-1 1.1-2 1.7-3zm-1.6-.2c-1.4 1.9-2.7 4.1-3.2 6.4-.1.2.3.3.4.1.9-2.2 1.7-4.3 3.1-6.3.1-.2-.2-.4-.3-.2zm-1.6.8c-1.4 2.2-2.6 4.5-3.2 7 0 .1.1.2.2.1 1-2.4 2-4.7 3.3-6.9.1-.2-.2-.4-.3-.2zm-1.7.3c-1.2 1.2-2.4 2.6-3.1 4.2-.1.1.1.3.2.1.9-1.5 1.8-2.9 3-4.2.1-.1-.1-.2-.1-.1zm-1.9.5c-2.5 1.6-4.9 4.1-5.8 7 0 .1.2.2.2.1 1.6-2.7 3.1-5 5.7-6.8.2-.2.1-.4-.1-.3zm-3.1 1.9c-1.7 1.8-3.3 3.7-4.6 5.7-.1.1.1.2.1.1 1.5-1.9 3-3.9 4.7-5.7 0 0-.1-.2-.2-.1zm.2-.7c.1-.1 0-.3-.1-.2-2.6 1.9-5.5 4.1-6.6 7.3 0 .1.2.2.2.1 1.5-3.1 3.9-5.2 6.5-7.2z" fill="#1b141c" stroke-width="none" opacity="1"></path></g></g><g id="svga-group-nose-single-move" transform="matrix(1,0,0,1,0,0)"><g id="svga-group-nose-single" transform="matrix(1,0,0,1,0,0)"><path id="SvgjsPath4212" d="M105.06 106.65c.56.92 2.64 3.61 3.09 4.9.45 1.29-.13 3.22-1.48 3.61s-3.61-.39-3.93-.19c-.32.19-1.87 2.06-2.58 1.93-.71-.13-2.64-2.13-3.03-2.13-.39 0-2.13.45-2.97.45-.84 0-2.9-.71-2.64-2.51.26-1.81 2.45-5.54 2.9-6.06.45-.52 1.48-2.32 1.74-3.42s.58-7.03.71-8.38c.13-1.35 1.35-2.97 2.58-3.09 1.23-.13 3.35.77 3.55 2.9.19 2.13.58 6.38.77 8.12.19 1.74.58 2.71 1.29 3.87z" fill="#f0c7b1" stroke-width="none" opacity="1" transform="translate(0 1)" stroke="none"></path><path id="SvgjsPath4213" d="M97.62 85.76c-.84 3.5-.96 7.24-1.34 10.81-.4 3.83-1.14 7.78-1.09 11.63 0 .31.48.39.55.07.78-3.52.88-7.26 1.24-10.84.39-3.82 1.1-7.79.98-11.63 0-.18-.29-.24-.34-.04z" fill="#c27b55" stroke-width="none" opacity="1" transform="translate(0 1)" stroke="none"></path><path id="SvgjsPath4214" d="M94.46 106.19c-1.03 1.37-1.9 2.87-2.65 4.41-.49 1-1.09 2.17-.77 3.32.53 1.89 2.93 2.49 4.5 1.58.47-.27.26-.99-.27-1-.92-.01-1.98.28-2.72-.5-.88-.94-.01-2.63.38-3.57.58-1.39 1.28-2.72 1.83-4.12.07-.19-.2-.26-.3-.12z" fill="#c27b55" stroke-width="none" opacity="1" transform="translate(0 1)" stroke="none"></path><path id="SvgjsPath4215" d="M94.31 113.98c2.84-.21 3.38 3.37 6.07 3.45 2.31.07 2.5-3.41 4.69-3.3.26.01.34-.35.13-.47-2.49-1.47-2.95 2.86-5.24 2.59-1.36-.16-2.32-2.16-3.54-2.73-.83-.39-1.43-.36-2.23.02-.22.09-.11.46.12.44z" fill="#c27b55" stroke-width="none" opacity="1" transform="translate(0 1)" stroke="none"></path><path id="SvgjsPath4216" d="M104.29 115.6c1.87.42 4.05-.16 4.49-2.24.22-1.04-.13-2.07-.67-2.95-.89-1.44-2.03-2.66-2.87-4.15-.14-.25-.49-.12-.51.14-.11 1.67 1.13 2.83 2.02 4.12.82 1.19 1.53 2.83.15 4-.63.54-1.83.44-2.6.59-.26.04-.25.43-.01.49z" fill="#c27b55" stroke-width="none" opacity="1" transform="translate(0 1)" stroke="none"></path><path id="SvgjsPath4217" d="M102.45 109.98c-.41-.74-1.47-.85-2.06-.26-.05.05-.24.29-.3.36-.07.09-.2.26-.23.29-.07.1-.12.21-.18.32l-.12.28c0-.01-.01.01-.03.05-.06.06-.12.13-.18.2-.18.19-.36.38-.5.6-.42.67-.08 1.42.48 1.84.87.65 2.13.13 2.74-.61.76-.89.96-2.03.38-3.07z" fill="#f8d5c3" stroke-width="none" opacity="1" transform="translate(0 1)" stroke="none"></path></g></g><g id="svga-group-hair-front" transform="matrix(1,0,0,1,0,0)"></g><g id="svga-group-glasses-single-move" transform="matrix(1,0,0,1,0,0)"><g id="svga-group-glasses-single" transform="matrix(1,0,0,1,0,0)"></g></g></g></g></g><rect id="svga-credit-rect" width="200" height="15" x="0" y="185" fill="#ecf0f1" opacity="0.5" style="display: none;"></rect><text id="svga-credit-text" font-family="Avenir Next, Roboto, Helvetica, Arial, sans-serif" font-size="10px" text-anchor="start" font-weight="400" size="10px" anchor="start" weight="400" fill="#333333" x="33.43669891357422" y="182.60824704170227" style="display: none;"><tspan id="SvgjsTspan3125" dy="13" x="33.43669891357422">Created on AvatarMaker.com</tspan></text></g></svg>